<?xml version="1.0" standalone="no"?>
<!DOCTYPE svg PUBLIC "-//W3C//DTD SVG 20010904//EN"
 "http://www.w3.org/TR/2001/REC-SVG-20010904/DTD/svg10.dtd">
<svg version="1.0" xmlns="http://www.w3.org/2000/svg"
 width="1200.000000pt" height="1200.000000pt" viewBox="0 0 1200.000000 1200.000000"
 preserveAspectRatio="xMidYMid meet">
<metadata>
Created by potrace 1.14, written by Peter Selinger 2001-2017
</metadata>
<g transform="translate(0.000000,1200.000000) scale(0.100000,-0.100000)"
fill="#000000" stroke="none">
<path d="M0 6000 l0 -6000 6000 0 6000 0 0 6000 0 6000 -6000 0 -6000 0 0
-6000z m10862 3478 c-11 -18 -439 -757 -952 -1643 -513 -885 -941 -1617 -951
-1625 -21 -17 -999 -1701 -1066 -1835 -75 -151 -177 -327 -182 -313 -6 20
-502 860 -518 880 -13 15 115 241 1277 2260 711 1234 1301 2258 1312 2276 l20
32 540 0 540 0 -20 -32z m-6095 -392 c128 -220 232 -399 231 -400 -18 -7 -264
-148 -1482 -851 -1141 -659 -1415 -821 -1400 -828 21 -10 990 -1672 988 -1694
-1 -9 11 -6 40 10 1139 662 2763 1607 2797 1627 l47 28 232 -404 c128 -223
230 -407 228 -410 -17 -16 -1580 -901 -1763 -997 -323 -170 -1668 -938 -1822
-1041 -107 -72 -130 -83 -139 -71 -22 30 -1906 3296 -1903 3299 20 18 3696
2135 3703 2133 5 -2 114 -182 243 -401z m-2066 -5785 c15 -18 19 -36 17 -70
-3 -39 -7 -48 -30 -59 -34 -16 -61 -4 -80 36 -13 27 -14 27 -125 30 -143 3
-143 4 -143 -126 0 -138 3 -142 131 -142 106 0 139 9 139 39 0 28 35 54 62 46
40 -13 48 -26 48 -77 0 -39 -5 -54 -25 -73 -24 -25 -26 -25 -209 -25 -102 0
-196 4 -210 10 -38 14 -48 70 -44 240 3 154 8 172 53 191 11 5 105 8 208 6
186 -2 189 -2 208 -26z m650 8 c19 -19 20 -31 18 -164 -1 -104 2 -149 11 -160
19 -22 242 -22 261 1 9 11 12 52 10 159 -2 134 -1 145 18 164 25 25 48 27 73
4 16 -14 18 -35 18 -200 0 -250 18 -233 -250 -233 -268 0 -250 -16 -250 231 0
156 2 185 17 201 21 24 48 23 74 -3z m1421 -6 c14 -13 18 -32 18 -89 0 -63 -3
-75 -22 -88 l-21 -15 23 -19 c20 -16 23 -27 23 -91 0 -53 -4 -77 -16 -88 -23
-24 -93 -32 -273 -32 -127 -1 -164 2 -173 13 -15 18 -17 402 -2 419 7 9 69 11
217 9 175 -2 211 -5 226 -19z m999 1 c9 -11 10 -20 2 -32 -9 -14 -33 -17 -159
-20 -120 -2 -151 -6 -166 -19 -22 -20 -23 -41 -1 -65 13 -14 31 -18 89 -18 82
0 112 -16 94 -51 -9 -16 -22 -19 -83 -19 -85 0 -117 -16 -117 -59 0 -47 13
-51 168 -51 80 0 152 -5 163 -10 11 -6 19 -21 19 -35 0 -14 -8 -29 -19 -35
-12 -6 -98 -10 -210 -10 -250 0 -231 -18 -231 221 0 105 4 188 10 200 10 18
23 19 219 19 178 0 210 -2 222 -16z m543 3 c9 -7 50 -71 90 -142 40 -72 79
-130 87 -130 7 0 45 60 84 133 40 74 78 138 86 143 8 5 29 9 47 9 27 0 32 -4
32 -22 0 -13 -46 -106 -103 -208 -114 -207 -136 -230 -183 -195 -32 24 -249
399 -239 414 9 15 77 14 99 -2z m1410 -2 c22 -22 29 -88 24 -245 -3 -117 -6
-143 -21 -157 -16 -16 -41 -18 -235 -18 -119 0 -229 3 -244 8 -38 10 -43 35
-43 224 0 144 2 164 19 182 18 20 29 21 252 21 194 0 235 -2 248 -15z m664 3
c8 -8 12 -68 12 -203 0 -180 -1 -193 -20 -210 -16 -15 -26 -17 -48 -9 l-27 9
-3 200 c-1 110 0 205 2 212 7 16 68 17 84 1z m994 -15 c31 -14 56 -35 75 -64
25 -37 28 -52 28 -118 -1 -93 -24 -145 -85 -185 -52 -34 -123 -46 -287 -46
-171 0 -163 -10 -163 214 0 96 5 187 10 201 l10 27 183 -4 c160 -3 188 -6 229
-25z"/>
<path d="M4432 3238 c-7 -7 -12 -24 -12 -38 0 -45 15 -50 140 -50 125 0 140 5
140 50 0 45 -15 50 -140 50 -77 0 -120 -4 -128 -12z"/>
<path d="M4432 3058 c-20 -20 -14 -65 10 -82 17 -12 48 -16 123 -16 122 0 138
8 133 65 l-3 40 -125 3 c-89 2 -129 -1 -138 -10z"/>
<path d="M7340 3237 c-24 -12 -25 -16 -28 -126 -2 -75 1 -118 9 -127 9 -11 44
-14 155 -14 176 0 174 -2 174 138 0 85 -2 95 -25 117 -23 24 -30 25 -142 25
-75 0 -127 -5 -143 -13z"/>
<path d="M9082 3234 c-21 -14 -22 -23 -22 -128 0 -88 3 -116 15 -126 10 -9 45
-11 117 -8 154 6 188 32 188 143 0 46 -5 60 -28 86 -23 26 -37 32 -97 39 -102
14 -148 12 -173 -6z"/>
</g>
</svg>
